<?xml version="1.0" standalone="no"?>
<!DOCTYPE svg PUBLIC "-//W3C//DTD SVG 20010904//EN"
 "http://www.w3.org/TR/2001/REC-SVG-20010904/DTD/svg10.dtd">
<svg version="1.0" xmlns="http://www.w3.org/2000/svg"
 width="324.000000pt" height="324.000000pt" viewBox="0 0 324.000000 324.000000"
 preserveAspectRatio="xMidYMid meet">
<metadata>
Created by potrace 1.11, written by Peter Selinger 2001-2013
</metadata>
<g transform="translate(0.000000,324.000000) scale(0.100000,-0.100000)"
fill="#000000" stroke="none">
<path d="M2189 3033 c-19 -17 -45 -38 -58 -49 -13 -10 -42 -35 -65 -54 -23
-19 -62 -51 -86 -70 -25 -19 -54 -44 -65 -55 -12 -11 -38 -33 -58 -48 -21 -16
-48 -38 -61 -50 -13 -13 -39 -34 -56 -47 -18 -14 -42 -33 -54 -43 -35 -30 -57
-49 -146 -122 -47 -38 -96 -80 -110 -91 -14 -12 -59 -49 -100 -83 -41 -34 -91
-75 -110 -92 -40 -34 -70 -59 -119 -97 -19 -15 -39 -32 -45 -37 -6 -6 -40 -35
-76 -64 -36 -30 -85 -71 -110 -91 -68 -58 -479 -397 -530 -439 -24 -20 -55
-46 -68 -58 -12 -13 -25 -23 -28 -23 -3 0 -13 -8 -24 -18 -22 -20 -27 -43 -35
-162 -3 -47 -8 -114 -11 -150 -2 -36 -6 -92 -9 -125 -2 -33 -6 -89 -9 -125
-10 -109 -15 -171 -22 -274 -3 -54 -7 -106 -9 -115 -5 -29 16 -41 70 -41 28 0
55 -3 59 -7 4 -5 20 -8 34 -8 22 0 29 -7 43 -47 9 -27 15 -48 12 -48 -3 0 0
-6 6 -13 6 -8 8 -17 4 -20 -3 -4 -1 -7 5 -7 15 0 15 13 0 28 -7 7 -9 12 -5 12
3 0 0 18 -8 41 -8 23 -13 44 -10 48 2 4 28 5 57 1 29 -4 82 -11 118 -14 36 -4
79 -8 95 -11 17 -2 62 -6 100 -10 39 -4 81 -8 95 -10 14 -2 49 -6 78 -9 104
-12 155 -18 175 -22 22 -4 78 32 147 96 8 8 34 28 55 45 22 16 45 34 50 40 6
6 35 31 65 56 30 24 57 46 60 49 3 3 43 37 90 75 47 38 87 72 90 75 3 3 27 23
55 45 27 22 57 47 65 55 9 9 34 29 55 45 22 17 42 32 45 35 3 4 59 51 125 106
66 55 129 107 140 116 11 9 49 41 85 70 36 29 67 55 70 58 3 3 68 57 145 120
77 63 142 117 145 120 3 3 28 23 55 45 28 21 57 47 66 57 9 10 21 18 27 18 6
0 12 4 14 9 2 5 57 53 124 108 66 54 127 104 135 111 8 7 24 20 35 30 12 9 42
34 68 56 l46 38 -42 52 c-24 28 -47 56 -53 62 -5 6 -23 28 -40 50 -16 21 -40
48 -52 60 -13 13 -23 26 -23 28 0 6 -23 34 -70 86 -14 15 -32 36 -40 46 -8 11
-44 55 -80 99 -36 44 -75 91 -86 105 -12 14 -59 70 -104 125 -45 55 -99 120
-120 145 -21 25 -54 65 -75 90 -20 25 -51 62 -69 84 l-33 38 -34 -29z"/>
<path d="M256 372 c-7 -12 -6 -251 2 -272 4 -10 7 48 7 131 0 82 -1 149 -2
149 -1 0 -4 -3 -7 -8z"/>
<path d="M360 242 c0 -4 5 -13 12 -20 7 -7 8 -12 4 -12 -5 0 -3 -7 4 -15 7 -8
10 -15 6 -15 -4 0 0 -13 9 -30 9 -16 18 -30 21 -30 2 0 0 8 -5 19 -6 10 -7 21
-4 25 3 3 1 6 -6 6 -7 0 -10 4 -6 9 3 5 1 12 -5 16 -6 4 -8 10 -5 15 3 5 1 11
-5 15 -6 4 -8 11 -5 16 4 5 1 9 -4 9 -6 0 -11 -4 -11 -8z"/>
<path d="M427 70 c9 -22 18 -38 20 -36 7 6 -20 76 -28 76 -4 0 0 -18 8 -40z"/>
<path d="M260 63 c0 -4 5 -15 10 -23 8 -13 10 -13 10 2 0 9 -4 20 -10 23 -5 3
-10 3 -10 -2z"/>
</g>
</svg>
